<svg width="582" height="132" viewBox="0 0 582 132" fill="none" xmlns="http://www.w3.org/2000/svg">
<path d="M142.31 0L187.966 87.6159H96.6529L142.31 0Z" fill="#FFECEC"/>
<mask id="mask0" mask-type="alpha" maskUnits="userSpaceOnUse" x="96" y="0" width="92" height="88">
<path d="M142.343 0L188 87.6159H96.6867L142.343 0Z" fill="#C4C4C4"/>
</mask>
<g mask="url(#mask0)">
<rect x="142.343" width="45.6904" height="87.6159" fill="#8D8A8A"/>
</g>
<ellipse cx="44.226" cy="45" rx="44.226" ry="45" fill="#FFECEC"/>
<mask id="mask1" mask-type="alpha" maskUnits="userSpaceOnUse" x="0" y="0" width="89" height="90">
<ellipse cx="44.226" cy="45" rx="44.226" ry="45" fill="#796B77"/>
</mask>
<g mask="url(#mask1)">
<rect x="44.5189" y="-3.57616" width="47.4478" height="46.4901" fill="#0812FC"/>
</g>
<mask id="mask2" mask-type="alpha" maskUnits="userSpaceOnUse" x="0" y="0" width="89" height="90">
<ellipse cx="44.226" cy="45" rx="44.226" ry="45" fill="#796B77"/>
</mask>
<g mask="url(#mask2)">
<rect x="44.5189" y="-3.57616" width="47.4478" height="47.0861" fill="#0812FC"/>
<rect x="-2.92889" y="43.5099" width="47.4478" height="47.0861" fill="#0812FC"/>
</g>
<path d="M238.336 54.056H221.376L216.896 65H209.536L230.144 16.488H230.592L251.2 65H242.624L238.336 54.056ZM235.84 47.656L230.016 32.936L224 47.656H235.84ZM280.142 65L269.646 48.808H268.878H262.158V65H254.67V18.408H267.79C272.995 18.408 277.155 19.7307 280.27 22.376C283.427 25.0213 285.006 28.6907 285.006 33.384C285.006 36.2427 284.387 38.9093 283.15 41.384C281.955 43.816 280.057 45.6933 277.454 47.016L288.782 65H280.142ZM262.158 41.64H268.814C271.801 41.64 273.955 40.8293 275.278 39.208C276.643 37.544 277.326 35.688 277.326 33.64C277.326 32.4453 277.07 31.2507 276.558 30.056C276.046 28.8187 275.171 27.7733 273.934 26.92C272.697 26.024 271.075 25.576 269.07 25.576H262.158V41.64ZM300.553 18.408V65H293.065V18.408H300.553ZM332.833 54.056H315.873L311.393 65H304.033L324.641 16.488H325.089L345.697 65H337.121L332.833 54.056ZM330.337 47.656L324.513 32.936L318.497 47.656H330.337ZM362.308 41.768C362.308 37.5013 363.374 33.5547 365.508 29.928C367.641 26.2587 370.521 23.336 374.148 21.16C377.817 18.984 381.806 17.896 386.116 17.896C390.382 17.896 394.329 18.984 397.956 21.16C401.625 23.336 404.548 26.2587 406.724 29.928C408.9 33.5973 409.988 37.544 409.988 41.768C409.988 46.0773 408.9 50.0453 406.724 53.672C404.59 57.2987 401.689 60.1787 398.02 62.312C394.35 64.4453 390.382 65.512 386.116 65.512C381.806 65.512 377.817 64.4667 374.148 62.376C370.521 60.2427 367.641 57.3627 365.508 53.736C363.374 50.1093 362.308 46.12 362.308 41.768ZM369.988 41.768C369.988 44.7973 370.713 47.5707 372.164 50.088C373.614 52.6053 375.577 54.6107 378.052 56.104C380.569 57.5973 383.321 58.344 386.308 58.344C389.252 58.344 391.94 57.6187 394.372 56.168C396.804 54.6747 398.724 52.6693 400.132 50.152C401.582 47.592 402.308 44.7973 402.308 41.768C402.308 38.7387 401.582 35.944 400.132 33.384C398.681 30.824 396.718 28.7973 394.244 27.304C391.769 25.8107 389.06 25.064 386.116 25.064C383.129 25.064 380.398 25.8107 377.924 27.304C375.492 28.7973 373.55 30.824 372.1 33.384C370.692 35.944 369.988 38.7387 369.988 41.768ZM439.905 27.88C435.895 25.7893 432.332 24.744 429.217 24.744C426.913 24.744 425.079 25.256 423.713 26.28C422.391 27.304 421.729 28.712 421.729 30.504C421.729 32.2533 422.561 33.7253 424.225 34.92C425.932 36.072 428.3 37.224 431.329 38.376C433.633 39.1867 435.596 40.1253 437.217 41.192C438.881 42.216 440.247 43.624 441.313 45.416C442.38 47.208 442.913 49.4693 442.913 52.2C442.913 54.6747 442.295 56.9147 441.057 58.92C439.82 60.9253 438.028 62.5253 435.681 63.72C433.335 64.9147 430.561 65.512 427.361 65.512C424.545 65.512 421.772 65.0853 419.041 64.232C416.311 63.336 413.879 62.12 411.745 60.584L415.073 54.76C416.652 55.9547 418.508 56.9573 420.641 57.768C422.817 58.536 424.823 58.92 426.657 58.92C428.919 58.92 430.903 58.3867 432.609 57.32C434.316 56.2107 435.169 54.5253 435.169 52.264C435.169 50.472 434.444 48.9787 432.993 47.784C431.585 46.5893 429.601 45.5013 427.041 44.52C424.396 43.5387 422.199 42.5787 420.449 41.64C418.7 40.6587 417.185 39.3147 415.905 37.608C414.668 35.8587 414.049 33.6827 414.049 31.08C414.049 27.2827 415.329 24.232 417.889 21.928C420.492 19.5813 423.905 18.3227 428.129 18.152C431.201 18.152 433.889 18.5147 436.193 19.24C438.54 19.9227 440.716 20.904 442.721 22.184L439.905 27.88ZM455.715 18.408V57.832H478.692V65H448.227V18.408H455.715ZM480.18 41.768C480.18 37.5013 481.247 33.5547 483.38 29.928C485.513 26.2587 488.393 23.336 492.02 21.16C495.689 18.984 499.679 17.896 503.988 17.896C508.255 17.896 512.201 18.984 515.828 21.16C519.497 23.336 522.42 26.2587 524.596 29.928C526.772 33.5973 527.86 37.544 527.86 41.768C527.86 46.0773 526.772 50.0453 524.596 53.672C522.463 57.2987 519.561 60.1787 515.892 62.312C512.223 64.4453 508.255 65.512 503.988 65.512C499.679 65.512 495.689 64.4667 492.02 62.376C488.393 60.2427 485.513 57.3627 483.38 53.736C481.247 50.1093 480.18 46.12 480.18 41.768ZM487.86 41.768C487.86 44.7973 488.585 47.5707 490.036 50.088C491.487 52.6053 493.449 54.6107 495.924 56.104C498.441 57.5973 501.193 58.344 504.18 58.344C507.124 58.344 509.812 57.6187 512.244 56.168C514.676 54.6747 516.596 52.6693 518.004 50.152C519.455 47.592 520.18 44.7973 520.18 41.768C520.18 38.7387 519.455 35.944 518.004 33.384C516.553 30.824 514.591 28.7973 512.116 27.304C509.641 25.8107 506.932 25.064 503.988 25.064C501.001 25.064 498.271 25.8107 495.796 27.304C493.364 28.7973 491.423 30.824 489.972 33.384C488.564 35.944 487.86 38.7387 487.86 41.768Z" fill="#0812FC"/>
</svg>
